<svg width="24" height="24" fill="currentColor" viewBox="0 0 24 24" transform="" id="injected-svg"><!--Boxicons v3.0 https://boxicons.com | License  https://docs.boxicons.com/free--><path d="M3 3H7V7H3z"></path><path d="M10 3H14V7H10z"></path><path d="M10 3H14V7H10z"></path><path d="M17 3H21V7H17z"></path><path d="M3 17H7V21H3z"></path><path d="M10 17H14V21H10z"></path><path d="M10 17H14V21H10z"></path><path d="M17 17H21V21H17z"></path><path d="M3 10H7V14H3z"></path><path d="M10 10H14V14H10z"></path><path d="M10 10H14V14H10z"></path><path d="M17 10H21V14H17z"></path></svg>